<svg id="Layer_1" enable-background="new 0 0 509.436 509.436" height="512" viewBox="0 0 509.436 509.436" width="512" xmlns="http://www.w3.org/2000/svg"><path d="m440.951 0h-372.466c-30.685 0-55.65 24.964-55.65 55.649v398.138c0 30.685 24.964 55.649 55.649 55.649h372.467c30.685 0 55.649-24.964 55.649-55.649v-398.138c.001-30.685-24.964-55.649-55.649-55.649z" fill="#8bc4ff"/><path d="m440.951 0h-372.466c-30.685 0-55.65 24.964-55.65 55.649v109.801c0 9.107 7.383 16.491 16.491 16.491h450.784c9.107 0 16.491-7.383 16.491-16.491v-109.801c0-30.685-24.965-55.649-55.65-55.649z" fill="#a2d0f9"/><path d="m343.498 313.583c-164.853-63.736-274.045-39.271-330.663-13.995v154.199c0 30.685 24.964 55.649 55.649 55.649h372.467c30.685 0 55.649-24.964 55.649-55.649v-135.324c-38.974 17.673-89.155 19.843-153.102-4.88z" fill="#80b9ed"/><g fill="#b4dcf9"><ellipse cx="122.124" cy="410.993" rx="35.914" ry="35.914" transform="matrix(.924 -.383 .383 .924 -147.984 78.02)"/><ellipse cx="122.124" cy="282.914" rx="35.914" ry="35.914" transform="matrix(.924 -.383 .383 .924 -98.97 68.27)"/><ellipse cx="245.955" cy="410.993" rx="35.914" ry="35.914" transform="matrix(.924 -.383 .383 .924 -138.558 125.408)"/><ellipse cx="245.955" cy="282.914" rx="35.914" ry="35.914" transform="matrix(.924 -.383 .383 .924 -89.544 115.659)"/><path d="m423.226 394.314c0 24.358-19.734 44.227-44.227 44.227-24.426 0-44.227-19.801-44.227-44.227v-103.087c.001-24.358 19.735-44.227 44.228-44.227 24.426 0 44.227 19.801 44.227 44.227v103.087z"/><path d="m440.951 0h-372.466c-30.685 0-55.65 24.964-55.65 55.649v54.768c31.748 12.773 100.849 19.486 250.999-7.946 99.143-18.113 175.384-15.352 232.766-3.913v-42.909c.001-30.685-24.964-55.649-55.649-55.649z"/></g><path d="m440.951 0h-372.466c-30.685 0-55.65 24.964-55.65 55.649v398.138c0 30.685 24.964 55.649 55.649 55.649h372.467c30.685 0 55.649-24.964 55.649-55.649v-398.138c.001-30.685-24.964-55.649-55.649-55.649zm-372.466 32.981h372.467c12.5 0 22.668 10.169 22.668 22.668v93.31h-417.803v-93.31c0-12.499 10.168-22.668 22.668-22.668zm372.466 443.475h-372.466c-12.5 0-22.668-10.169-22.668-22.668v-271.847h417.803v271.846c-.001 12.499-10.169 22.669-22.669 22.669z" fill="#2e58ff"/><path d="m122.123 215.232c-28.896 0-52.404 23.508-52.404 52.404s23.508 52.405 52.404 52.405 52.405-23.509 52.405-52.405c0-28.895-23.509-52.404-52.405-52.404zm0 71.828c-10.71 0-19.423-8.714-19.423-19.424s8.713-19.423 19.423-19.423 19.424 8.713 19.424 19.423-8.714 19.424-19.424 19.424z" fill="#2e58ff"/><path d="m122.123 343.311c-28.896 0-52.404 23.509-52.404 52.405s23.508 52.404 52.404 52.404 52.405-23.508 52.405-52.404c0-28.897-23.509-52.405-52.405-52.405zm0 71.828c-10.71 0-19.423-8.713-19.423-19.423s8.713-19.424 19.423-19.424 19.424 8.714 19.424 19.424-8.714 19.423-19.424 19.423z" fill="#2e58ff"/><path d="m245.955 215.232c-28.896 0-52.405 23.508-52.405 52.404s23.509 52.405 52.405 52.405 52.404-23.509 52.404-52.405c0-28.895-23.508-52.404-52.404-52.404zm0 71.828c-10.71 0-19.424-8.714-19.424-19.424s8.714-19.423 19.424-19.423 19.423 8.713 19.423 19.423-8.713 19.424-19.423 19.424z" fill="#2e58ff"/><path d="m245.955 343.311c-28.896 0-52.405 23.509-52.405 52.405s23.509 52.404 52.405 52.404 52.404-23.508 52.404-52.404c0-28.897-23.508-52.405-52.404-52.405zm0 71.828c-10.71 0-19.424-8.713-19.424-19.423s8.714-19.424 19.424-19.424 19.423 8.714 19.423 19.424-8.713 19.423-19.423 19.423z" fill="#2e58ff"/><path d="m378.999 215.232c-33.479 0-60.717 27.237-60.717 60.717v103.087c0 33.479 27.237 60.717 60.717 60.717 33.479 0 60.717-27.237 60.717-60.717v-103.087c.001-33.479-27.237-60.717-60.717-60.717zm27.737 163.804c0 15.246-12.395 27.736-27.737 27.736-15.294 0-27.736-12.442-27.736-27.736v-103.087c0-15.294 12.442-27.736 27.736-27.736s27.736 12.442 27.736 27.736v103.087z" fill="#2e58ff"/></svg>