<svg id="Layer_1" enable-background="new 0 0 506.1 506.1" height="512" viewBox="0 0 506.1 506.1" width="512" xmlns="http://www.w3.org/2000/svg"><path d="m489.609 0h-473.118c-9.108 0-16.491 7.383-16.491 16.491v473.118c0 9.107 7.383 16.491 16.491 16.491h473.118c9.107 0 16.491-7.383 16.491-16.491v-473.118c0-9.108-7.384-16.491-16.491-16.491z" fill="#a2d0f9"/><path d="m306.827 146.374c-92.334-43.662-223.152-8.999-306.827 22.372v320.863c0 9.107 7.383 16.491 16.491 16.491h473.118c9.107 0 16.491-7.383 16.491-16.491v-346.085c-49.714 23.302-121.26 39.74-199.273 2.85z" fill="#8bc4ff"/><path d="m506.1 489.609v-164.022c-27.896-15.857-243.388-119.388-413.146-8.53-35.35 23.084-66.199 37.495-92.954 45.755v126.797c0 9.107 7.383 16.491 16.491 16.491h473.118c9.107 0 16.491-7.384 16.491-16.491z" fill="#80b9ed"/><g fill="#2e58ff"><path d="m489.609 506.1h-473.118c-9.108 0-16.491-7.384-16.491-16.491v-473.118c0-9.108 7.383-16.491 16.491-16.491h473.119c9.107 0 16.49 7.383 16.49 16.491v473.118c0 9.107-7.383 16.491-16.491 16.491zm-456.628-32.982h440.138v-440.137h-440.138z"/><path d="m367.278 240.136v-62.051c0-8.836-7.163-16-16-16s-16 7.164-16 16v147.377c0 15.024 18.993 21.77 28.457 10.03 34.691 18.107 77.146-6.988 77.146-46.831.001-37.966-39-63.416-73.603-48.525zm20.802 69.327c-11.47 0-20.802-9.332-20.802-20.802s9.332-20.802 20.802-20.802 20.802 9.332 20.802 20.802-9.332 20.802-20.802 20.802z"/><path d="m112.397 200.262h-14.014c-8.836 0-16 7.164-16 16s7.164 16 16 16h14.014c8.291 0 15.037 6.746 15.037 15.037v4.998c-30.589-10.389-62.216 12.536-62.216 44.609 0 34.402 35.954 57.331 67.13 42.629 10.128 9.747 27.086 2.537 27.086-11.521v-80.715c0-25.936-21.101-47.037-47.037-47.037zm-.071 111.752c-8.331 0-15.108-6.777-15.108-15.108s6.777-15.108 15.108-15.108 15.108 6.777 15.108 15.108-6.778 15.108-15.108 15.108z"/><path d="m287.786 243.114c-6.248-6.248-16.379-6.249-22.627 0l-18.11 18.11-18.11-18.11c-6.249-6.249-16.379-6.249-22.627 0-6.249 6.249-6.249 16.379 0 22.627l18.11 18.11-18.11 18.11c-6.248 6.248-6.248 16.379 0 22.627s16.378 6.249 22.627 0l18.11-18.11 18.11 18.11c6.246 6.248 16.377 6.249 22.627 0 6.249-6.249 6.249-16.379 0-22.627l-18.11-18.11 18.11-18.11c6.249-6.248 6.249-16.379 0-22.627z"/></g></svg>