<svg id="Layer_1" enable-background="new 0 0 506.84 506.84" height="512" viewBox="0 0 506.84 506.84" width="512" xmlns="http://www.w3.org/2000/svg"><path d="m502.037 141.941c-3.58-4.359-85.716-86.54-135.788-137.059-2.756-2.833-7.039-4.882-11.711-4.882h-337.442c-9.107 0-16.49 7.383-16.49 16.49v337.441c0 4.4 1.734 8.388 4.543 11.345.414.458-1.267-1.252 135.444 136.682 2.946 3.003 7.153 4.882 11.712 4.882h337.441c9.107 0 16.49-7.383 16.49-16.49v-337.442c.001-4.217-1.595-8.051-4.199-10.967z" fill="#80b9ed"/><path d="m199.162 301.764c131.172-52.116 232.234-60.912 307.075-51.489v-97.367c0-4.396-1.779-8.609-4.83-11.661-138.734-139.974-135.225-136.475-135.765-136.922-2.931-2.678-6.821-4.325-11.104-4.325h-337.442c-9.107 0-16.49 7.383-16.49 16.49 0 356.2-.019 336.851.034 338.134 42.285-1.287 105.055-15.724 198.522-52.86z" fill="#8bc4ff"/><path d="m324.628 24.473c6.434-8.714 11.956-16.856 16.668-24.473h-324.2c-9.107 0-16.49 7.383-16.49 16.49v125.889c77.12 1.341 243.824-9.284 324.022-117.906z" fill="#a2d0f9"/><path d="m502.037 141.941c-3.58-4.359-85.716-86.54-135.788-137.059-2.756-2.833-7.039-4.882-11.711-4.882h-337.442c-9.107 0-16.49 7.383-16.49 16.49v337.441c0 4.4 1.734 8.388 4.543 11.345.414.458-1.267-1.252 135.444 136.682 2.946 3.003 7.153 4.882 11.712 4.882h337.441c9.107 0 16.49-7.383 16.49-16.49v-337.442c.001-4.217-1.595-8.051-4.199-10.967zm-131.009 205.203v-177.746h102.229v280.888zm-235.213 103.143-79.157-79.865h79.157zm-102.228-112.846v-280.888l102.229 103.143v177.746h-102.229zm337.441-280.888 79.157 79.865h-79.157zm-32.98 79.865h-178.869l-102.521-103.438h281.39zm0 32.98v168.043h-169.252v-168.043zm-169.252 201.024h178.869l102.521 103.438h-281.39z" fill="#2e58ff"/></svg>