<svg id="Layer_1" enable-background="new 0 0 505.449 505.449" height="512" viewBox="0 0 505.449 505.449" width="512" xmlns="http://www.w3.org/2000/svg"><path d="m488.958 19.298h-472.467c-9.108 0-16.491 7.384-16.491 16.491v302.976c0 9.107 7.383 16.491 16.491 16.491h472.468c9.107 0 16.491-7.383 16.491-16.491v-302.976c-.001-9.107-7.384-16.491-16.492-16.491z" fill="#80b9ed"/><path d="m505.449 35.789c0-9.107-7.383-16.491-16.491-16.491h-472.467c-9.108 0-16.491 7.384-16.491 16.491v212.726c31.413 8.276 74.194 8.699 132.412-6.423 121.17-31.473 271.524-34.225 373.037-30.515z" fill="#8bc4ff"/><path d="m488.958 19.298h-472.467c-9.108 0-16.491 7.384-16.491 16.491v21.98c79.029-8.087 177.919-5.519 271.098 32.488 103.104 42.056 182.063 48.07 234.351 42.952v-97.42c0-9.107-7.383-16.491-16.491-16.491z" fill="#a2d0f9"/><path d="m330.862 99.672-177.56 150.017c-11.703 9.889-4.695 29.087 10.643 29.087h177.561c9.107 0 16.49-7.383 16.49-16.49v-150.018c-.001-14.001-16.428-21.639-27.134-12.596z" fill="#b4dcf9"/><g fill="#2e58ff"><path d="m488.958 19.298h-472.467c-9.108 0-16.491 7.384-16.491 16.491v302.976c0 9.107 7.383 16.491 16.491 16.491h212.603l-51.709 107.239c-3.956 8.203-.512 18.06 7.692 22.016 8.202 3.955 18.06.512 22.016-7.692l45.632-94.637 45.632 94.637c3.956 8.205 13.812 11.647 22.016 7.692 8.204-3.956 11.647-13.813 7.692-22.016l-51.709-107.239h212.603c9.107 0 16.491-7.383 16.491-16.491v-302.976c-.001-9.107-7.384-16.491-16.492-16.491zm-16.49 302.976h-439.487v-269.994h439.486v269.994z"/><path d="m163.944 278.776h177.561c9.107 0 16.49-7.383 16.49-16.49v-150.018c0-14.001-16.427-21.64-27.133-12.597l-177.56 150.018c-11.704 9.889-4.696 29.087 10.642 29.087zm161.071-130.987v98.007h-116z"/></g></svg>