<svg id="Layer_1" enable-background="new 0 0 510.521 510.521" height="512" viewBox="0 0 510.521 510.521" width="512" xmlns="http://www.w3.org/2000/svg"><path d="m508.278 452.914-238.751-411.964c-6.327-10.918-22.17-10.984-28.535 0l-238.751 411.964c-6.358 10.971 1.567 24.759 14.268 24.759h477.502c12.681 0 20.634-13.773 14.267-24.759z" fill="#80b9ed"/><circle cx="255.03" cy="323.625" fill="#8bc4ff" r="154.159"/><path d="m255.03 169.467c-90.158 0-161.685 77.535-153.52 168.111 19.461 2.37 42.484 3.707 69.655 3.72 103.62.051 174.218 23.657 221.745 51.22 51.04-101.735-23.163-223.051-137.88-223.051z" fill="#a2d0f9"/><path d="m255.03 169.467c-76.025 0-139.365 55.321-151.899 127.821 56.22-23.863 138.402-52.383 217.618-50.285 25.573.677 46.284-2.445 63.083-7.98-27.592-41.866-75.021-69.556-128.802-69.556z" fill="#b4dcf9"/><path d="m508.278 452.914-238.751-411.964c-6.327-10.918-22.17-10.984-28.535 0l-238.751 411.964c-6.358 10.971 1.567 24.759 14.268 24.759h477.502c12.681 0 20.634-13.773 14.267-24.759zm-248.245-8.222h-10.006c-87.694-3.581-142.415-96.853-103.533-174.91l7.677-13.247c21.744-32.581 58.835-54.087 100.859-54.087 66.818 0 121.178 54.36 121.178 121.177 0 65.142-51.669 118.433-116.175 121.067zm-4.773-362.586 57.022 98.391c-35.564-14.277-76.551-15.056-113.9-.247zm-210.135 362.586 57.34-98.94c5.769 39.961 26.915 75.014 57.235 98.94zm305.234 0c30.482-24.054 51.69-59.354 57.325-99.579l57.71 99.579z" fill="#2e58ff"/></svg>