<svg id="Layer_1" enable-background="new 0 0 511.246 511.246" height="512" viewBox="0 0 511.246 511.246" width="512" xmlns="http://www.w3.org/2000/svg"><circle cx="255.623" cy="255.623" fill="#80b9ed" r="239.566"/><path d="m495.143 259.257c1.998-133.879-105.897-243.2-239.52-243.2-174.691 0-288.968 180.398-218.783 337.288 56.566-4.524 119.422-21.641 183.223-61.516 90.565-56.603 190.646-53.885 275.08-32.572z" fill="#8bc4ff"/><path d="m466.984 142.776c-76.808-143.558-270.309-169.961-382.981-54.276 41.71 4.646 82.198 16.301 113.696 39.867 55.27 41.352 169.547 32.928 269.285 14.409z" fill="#a2d0f9"/><g fill="#2e58ff"><path d="m436.336 74.911c-99.874-99.874-261.537-99.888-361.425 0-99.874 99.874-99.888 261.537 0 361.425 99.874 99.874 261.537 99.888 361.425 0 99.874-99.875 99.887-261.538 0-361.425zm-22.628 338.797c-87.369 87.369-228.789 87.381-316.17 0-87.369-87.369-87.381-228.789 0-316.17 87.369-87.369 228.789-87.381 316.17 0 87.369 87.369 87.381 228.789 0 316.17z"/><path d="m382.117 171.307h-21.867c-18.659 0-36.283 8.161-48.355 22.39l-41.968 49.471-13.844-32.988c-9.91-23.614-32.86-38.873-58.47-38.873h-6.919c-8.836 0-16 7.164-16 16s7.164 16 16 16h6.919c12.686 0 24.055 7.558 28.963 19.256l20.134 47.974-69.454 81.872c-5.979 7.048-14.71 11.091-23.953 11.091h-24.174c-8.836 0-16 7.164-16 16s7.164 16 16 16h24.174c18.659 0 36.284-8.161 48.355-22.39l58.941-69.479 22.241 52.996c9.91 23.614 32.86 38.873 58.47 38.873 8.837 0 16-7.164 16-16s-7.163-16-16-16c-12.686 0-24.055-7.558-28.963-19.256l-28.531-67.981 52.481-61.864c5.979-7.049 14.71-11.091 23.953-11.091h21.867c8.837 0 16-7.164 16-16s-7.163-16.001-16-16.001z"/><path d="m224.095 147.747h121.399c8.837 0 16-7.164 16-16s-7.163-16-16-16h-121.399c-8.836 0-16 7.164-16 16s7.164 16 16 16z"/></g></svg>