<svg id="Layer_1" enable-background="new 0 0 511.246 511.246" height="512" viewBox="0 0 511.246 511.246" width="512" xmlns="http://www.w3.org/2000/svg"><circle cx="255.623" cy="255.623" fill="#80b9ed" r="239.566"/><path d="m495.143 259.257c1.998-133.879-105.897-243.2-239.52-243.2-174.691 0-288.968 180.398-218.783 337.288 56.566-4.524 119.422-21.641 183.223-61.516 90.565-56.603 190.646-53.885 275.08-32.572z" fill="#8bc4ff"/><path d="m466.984 142.776c-76.808-143.558-270.309-169.961-382.981-54.276 41.71 4.646 82.198 16.301 113.696 39.867 55.27 41.352 169.547 32.928 269.285 14.409z" fill="#a2d0f9"/><g fill="#2e58ff"><path d="m436.336 74.911c-99.874-99.874-261.537-99.888-361.425 0-99.874 99.874-99.888 261.537 0 361.425 99.874 99.874 261.537 99.888 361.425 0 99.874-99.875 99.887-261.538 0-361.425zm-22.628 338.797c-87.369 87.369-228.789 87.381-316.17 0-87.369-87.369-87.381-228.789 0-316.17 87.369-87.369 228.789-87.381 316.17 0 87.369 87.369 87.381 228.789 0 316.17z"/><path d="m426.34 190.816c-35.735-35.733-93.879-35.734-129.614 0l-41.103 41.103-41.103-41.103c-35.734-35.734-93.879-35.734-129.615 0-57.785 57.785-16.298 156.416 64.808 156.416 23.47 0 46.939-8.934 64.807-26.801l41.103-41.103 41.103 41.103c17.867 17.867 41.337 26.801 64.807 26.801 81.08 0 122.618-98.605 64.807-156.416zm-234.447 106.987c-23.258 23.257-61.103 23.258-84.36 0-23.258-23.258-23.258-61.102 0-84.36 23.258-23.257 61.101-23.258 84.36 0l42.18 42.18zm211.82 0c-23.258 23.257-61.101 23.258-84.36 0l-42.18-42.18 42.18-42.18c23.257-23.258 61.102-23.258 84.36 0s23.258 61.102 0 84.36z"/></g></svg>