<svg id="Layer_1" enable-background="new 0 0 506.1 506.1" height="512" viewBox="0 0 506.1 506.1" width="512" xmlns="http://www.w3.org/2000/svg"><path d="m489.609 0h-473.118c-9.108 0-16.491 7.383-16.491 16.491v473.118c0 9.107 7.383 16.491 16.491 16.491h473.118c9.107 0 16.491-7.383 16.491-16.491v-473.118c0-9.108-7.384-16.491-16.491-16.491z" fill="#a2d0f9"/><path d="m306.827 146.374c-92.334-43.662-223.152-8.999-306.827 22.372v320.863c0 9.107 7.383 16.491 16.491 16.491h473.118c9.107 0 16.491-7.383 16.491-16.491v-346.085c-49.714 23.302-121.26 39.74-199.273 2.85z" fill="#8bc4ff"/><path d="m506.1 489.609v-164.022c-27.896-15.857-243.388-119.388-413.146-8.53-35.35 23.084-66.199 37.495-92.954 45.755v126.797c0 9.107 7.383 16.491 16.491 16.491h473.118c9.107 0 16.491-7.384 16.491-16.491z" fill="#80b9ed"/><g fill="#2e58ff"><path d="m489.609 506.1h-473.118c-9.108 0-16.491-7.384-16.491-16.491v-473.118c0-9.108 7.383-16.491 16.491-16.491h473.119c9.107 0 16.49 7.383 16.49 16.491v473.118c0 9.107-7.383 16.491-16.491 16.491zm-456.628-32.982h440.138v-440.137h-440.138z"/><path d="m115.562 422.039c29.948 0 55.181-20.572 62.312-48.327h150.353c7.131 27.755 32.364 48.327 62.312 48.327 35.47 0 64.327-28.857 64.327-64.327s-28.857-64.327-64.327-64.327c-29.948 0-55.181 20.572-62.312 48.327h-150.354c-7.131-27.755-32.364-48.327-62.312-48.327-35.47 0-64.327 28.857-64.327 64.327s28.858 64.327 64.328 64.327zm274.976-96.654c17.825 0 32.327 14.502 32.327 32.327s-14.502 32.327-32.327 32.327-32.327-14.502-32.327-32.327 14.502-32.327 32.327-32.327zm-274.976 0c17.825 0 32.327 14.502 32.327 32.327s-14.502 32.327-32.327 32.327-32.327-14.502-32.327-32.327 14.501-32.327 32.327-32.327z"/><path d="m366.015 258.057c34.951 18.291 77.43-7.104 77.43-46.946 0-38.017-39.11-63.69-73.92-48.626v-62.425c0-8.836-7.163-16-16-16s-16 7.164-16 16v148.012c-.001 15.052 19.047 21.782 28.49 9.985zm24.469-67.905c11.558 0 20.96 9.403 20.96 20.96 0 11.558-9.402 20.96-20.96 20.96s-20.96-9.403-20.96-20.96 9.403-20.96 20.96-20.96z"/><path d="m135.683 262.124c10.078 9.756 27.121 2.666 27.121-11.489v-81.063c0-26.01-21.161-47.17-47.171-47.17h-14.073c-8.837 0-16 7.164-16 16s7.163 16 16 16h14.073c8.365 0 15.171 6.806 15.171 15.17v5.116c-30.667-10.485-62.484 12.476-62.484 44.704-.001 34.701 36.259 57.436 67.363 42.732zm-20.121-57.973c8.404 0 15.242 6.837 15.242 15.242s-6.838 15.242-15.242 15.242-15.242-6.837-15.242-15.242c-.001-8.405 6.837-15.242 15.242-15.242z"/></g></svg>