<svg id="Layer_1" enable-background="new 0 0 508.544 508.544" height="512" viewBox="0 0 508.544 508.544" width="512" xmlns="http://www.w3.org/2000/svg"><circle cx="254.272" cy="254.272" fill="#80b9ed" r="254.215"/><path d="m508.478 253.582c-.37-140.246-113.977-253.525-254.206-253.525-140.245 0-253.836 113.297-254.207 253.525z" fill="#8bc4ff"/><ellipse cx="254.272" cy="254.272" fill="#a2d0f9" rx="255.266" ry="105.06"/><path d="m184.845 254.272c102.332-58.91 233.343 3.99 300.134 44.96 10.957-9.563 23.508-24.899 23.508-44.96 0-96.737-276.606-130.261-427.887-75.911-36.348 13.058-80.543 37.194-80.543 75.911 0 10.893 3.703 20.391 8.839 28.331 49.421 9.989 111.573 8.729 175.949-28.331z" fill="#b4dcf9"/><path d="m434.029 74.515c-99.347-99.347-260.154-99.36-359.514 0-99.347 99.347-99.36 260.154 0 359.514 99.347 99.347 260.154 99.36 359.514 0 99.347-99.347 99.359-260.154 0-359.514zm-179.757 196.248c9.107 0 16.491-7.383 16.491-16.491v-68.708c55.395 1.383 106.746 9.722 146.03 23.836 36.215 13.011 58.713 30.205 58.713 44.872s-22.498 31.861-58.713 44.872c-89.324 32.091-235.734 32.085-325.042 0-36.215-13.011-58.713-30.205-58.713-44.872s22.498-31.861 58.713-44.872c39.285-14.114 90.636-22.453 146.03-23.836v68.708c0 9.107 7.384 16.491 16.491 16.491zm213.789-73.706c-51.943-31.824-136.001-43.011-197.298-44.479v-118.938c95.776 7.01 173.75 74.845 197.298 163.417zm-230.28-163.417v118.938c-61.184 1.465-145.308 12.626-197.298 44.479 23.498-88.383 101.341-156.394 197.298-163.417zm172.927 377.068c-121.565 121.563-327.083 63.049-370.225-99.221 98.136 60.125 331.313 58.979 427.578 0-9.887 37.189-29.417 71.285-57.353 99.221z" fill="#2e58ff"/></svg>