<svg id="Layer_1" enable-background="new 0 0 504.87 504.87" height="512" viewBox="0 0 504.87 504.87" width="512" xmlns="http://www.w3.org/2000/svg"><path d="m442.048 412.862-174.48-402.944c-5.726-13.224-24.539-13.225-30.266 0l-174.48 402.944c-4.707 10.869 3.271 23.043 15.133 23.043h348.96c11.846 0 19.846-12.16 15.133-23.043z" fill="#80b9ed"/><ellipse cx="252.435" cy="419.414" fill="#a2d0f9" rx="194.284" ry="85.945"/><path d="m198.961 432.331c91.266-49.938 184.34-49.723 231.736-45.154-47.752-56.783-212.995-69.282-307.699-31.857-68.963 27.254-73.058 70.941-45.982 99.516 28.114 8.454 67.941 7.045 121.945-22.505z" fill="#b4dcf9"/><path d="m443.395 419.017c-.098-11.091-4.279-21.637-12.234-31.297l-163.593-377.802c-5.726-13.224-24.539-13.225-30.266 0l-163.593 377.802c-7.596 9.226-12.244 19.887-12.244 31.695 0 25.65 21.853 48.412 61.533 64.093 114.8 45.369 322.326 15.904 320.397-64.491zm-190.96-361.046 128.62 297.034c-71.835-28.052-185.355-28.071-257.24 0zm117.315 394.864c-64.211 25.376-170.226 25.452-234.631 0-24.708-9.765-40.674-22.883-40.674-33.421s15.965-23.656 40.674-33.421c64.211-25.376 170.226-25.452 234.631 0 24.708 9.765 40.674 22.883 40.674 33.421s-15.965 23.657-40.674 33.421z" fill="#2e58ff"/></svg>