<svg id="Layer_1" enable-background="new 0 0 501.368 501.368" height="512" viewBox="0 0 501.368 501.368" width="512" xmlns="http://www.w3.org/2000/svg"><path d="m418.976 0h-257.895c-52.482 0-95.179 42.697-95.179 95.179v311.01c0 52.482 42.697 95.179 95.179 95.179h257.895c9.107 0 16.49-7.383 16.49-16.49v-468.388c0-9.107-7.383-16.49-16.49-16.49z" fill="#80b9ed"/><path d="m418.976 0h-257.895c-52.482 0-95.179 42.697-95.179 95.179v207.529c49.922-18.077 120.447-22.11 200.678 36.419 50.879 37.117 110.909 34.929 168.886 14.948v-337.585c0-9.107-7.383-16.49-16.49-16.49z" fill="#8bc4ff"/><path d="m271.749 114.264c52.152-32.168 110.84-31.981 163.717-19.271v-78.503c0-9.107-7.383-16.49-16.49-16.49h-257.895c-52.482 0-95.179 42.697-95.179 95.179v96.463c60.549-12.392 137.604-35.284 205.847-77.378z" fill="#a2d0f9"/><g fill="#2e58ff"><path d="m418.976 54.223h-252.272c-9.107 0-16.49 7.383-16.49 16.491s7.383 16.491 16.49 16.491h235.782v381.184h-241.405c-34.296 0-62.198-27.902-62.198-62.199v-311.011c0-34.296 27.902-62.199 62.198-62.199h257.895c9.107 0 16.49-7.383 16.49-16.49s-7.383-16.49-16.49-16.49h-257.895c-52.482 0-95.179 42.697-95.179 95.179v311.01c0 52.482 42.697 95.179 95.179 95.179h257.895c9.107 0 16.49-7.383 16.49-16.49v-414.165c0-9.107-7.383-16.49-16.49-16.49z"/><path d="m144.957 218.799-7.572 5.108c-9.655 6.515-9.287 20.802.521 26.87v54.042c0 8.836 7.164 16 16 16s16-7.164 16-16v-72.756c-.001-12.792-14.331-20.426-24.949-13.264z"/><path d="m257.011 289.213-9.214-.098 2.825-1.617c19.397-8.691 27.66-31.661 18.439-50.693-9.304-19.198-32.352-25.479-47.303-18.56l-17.024 7.888c-8.018 3.715-11.506 13.226-7.791 21.244 3.715 8.017 13.225 11.506 21.244 7.791l15.937-7.384c4.165-.871 7.953 3.223 6.347 7.416-1.047 2.742-3.104 3.013-4.965 4.079l-25.063 14.347c-7.848 4.492-12.723 12.9-12.723 21.943 0 13.794 11.222 25.136 25.017 25.283l33.936.359c8.955.076 16.076-7.091 16.168-15.83.094-8.836-6.994-16.075-15.83-16.168z"/><path d="m358.639 253.502 2.086-2.118c13.394-13.607 3.74-36.695-15.369-36.695h-37.963c-8.837 0-16 7.164-16 16s7.163 16 16 16h13.048c-11.295 11.462-2.725 27.863 10.773 27.863 3.04 0 4.958 1.635 5.831 2.609 4.253 4.749 1.255 12.218-4.75 12.966-4.175.519-6.982-2.006-8.118-4.327-3.889-7.937-13.474-11.216-21.407-7.33-7.937 3.887-11.218 13.472-7.331 21.407 6.745 13.77 20.744 22.313 35.845 22.313 35.214-.001 53.706-43.665 27.355-68.688z"/></g></svg>