<svg id="Layer_1" enable-background="new 0 0 511.26 511.26" height="512" viewBox="0 0 511.26 511.26" width="512" xmlns="http://www.w3.org/2000/svg"><path d="m494.769 58.136h-347.317c-9.107 0-16.49 7.383-16.49 16.491v222.722c0 9.107 7.383 16.491 16.49 16.491h347.317c9.107 0 16.49-7.383 16.49-16.491v-222.722c.001-9.107-7.382-16.491-16.49-16.491z" fill="#80b9ed"/><path d="m511.26 74.627c0-9.107-7.383-16.491-16.49-16.491h-347.318c-9.107 0-16.49 7.383-16.49 16.491v127.712c70.67 20.797 158.791 29.876 228.99-16.758 49.6-32.95 102.98-30.57 151.308-13.682z" fill="#8bc4ff"/><circle cx="147.452" cy="175.69" fill="#b4dcf9" r="94.141"/><path d="m289.787 372.226c-25.267-55.759-81.137-91.788-142.335-91.788s-117.068 36.029-142.335 91.787c-17.145 37.832 10.913 80.898 52.624 80.898h179.422c41.703 0 69.773-43.057 52.624-80.897z" fill="#8bc4ff"/><path d="m159.615 373.249c40.419-15.843 75.956-28.103 106.964-37.593-74.798-87.995-214.536-66.985-261.462 36.57-2.726 6.014-4.32 12.338-4.857 18.708 40.687 9.724 93.191 8.248 159.355-17.685z" fill="#a2d0f9"/><path d="m494.769 58.136h-347.317c-9.107 0-16.49 7.383-16.49 16.491v8.37c-44.074 7.819-77.65 46.408-77.65 92.693s33.576 84.874 77.65 92.693v12.939c-54.583 5.818-102.868 40.198-125.845 90.902-17.145 37.832 10.913 80.898 52.624 80.898h179.422c33.138 0 58.684-27.562 57.656-59.275l26.292-54.526 29.61 61.409c3.955 8.205 13.812 11.646 22.016 7.692 8.204-3.956 11.647-13.813 7.691-22.016l-34.99-72.567h149.331c9.107 0 16.49-7.383 16.49-16.491v-222.721c.001-9.107-7.382-16.491-16.49-16.491zm-408.477 117.554c0-33.724 27.437-61.161 61.16-61.161s61.16 27.437 61.16 61.161-27.437 61.161-61.16 61.161-61.16-27.437-61.16-61.161zm150.871 244.453h-179.422c-17.412 0-29.987-17.969-22.583-34.305 19.935-43.993 64.013-72.419 112.294-72.419s92.359 28.426 112.294 72.42c7.409 16.347-5.18 34.304-22.583 34.304zm41.372-68.457c-9.468-14.577-21.229-27.316-34.661-37.847h52.91zm199.744-70.828h-314.337v-12.475c44.074-7.819 77.65-46.408 77.65-92.693 0-37.094-21.567-69.241-52.818-84.572h289.504v189.74z" fill="#2e58ff"/></svg>