<svg id="Layer_1" enable-background="new 0 0 506.1 506.1" height="512" viewBox="0 0 506.1 506.1" width="512" xmlns="http://www.w3.org/2000/svg"><path d="m489.609 0h-473.118c-9.108 0-16.491 7.383-16.491 16.491v473.118c0 9.107 7.383 16.491 16.491 16.491h473.118c9.107 0 16.491-7.383 16.491-16.491v-473.118c0-9.108-7.384-16.491-16.491-16.491z" fill="#a2d0f9"/><path d="m306.827 146.374c-92.334-43.662-223.152-8.999-306.827 22.372v320.863c0 9.107 7.383 16.491 16.491 16.491h473.118c9.107 0 16.491-7.383 16.491-16.491v-346.085c-49.714 23.302-121.26 39.74-199.273 2.85z" fill="#8bc4ff"/><path d="m506.1 489.609v-164.022c-27.896-15.857-243.388-119.388-413.146-8.53-35.35 23.084-66.199 37.495-92.954 45.755v126.797c0 9.107 7.383 16.491 16.491 16.491h473.118c9.107 0 16.491-7.384 16.491-16.491z" fill="#80b9ed"/><g fill="#2e58ff"><path d="m489.609 506.1h-473.118c-9.108 0-16.491-7.384-16.491-16.491v-473.118c0-9.108 7.383-16.491 16.491-16.491h473.119c9.107 0 16.49 7.383 16.49 16.491v473.118c0 9.107-7.383 16.491-16.491 16.491zm-456.628-32.982h440.138v-440.137h-440.138z"/><path d="m143.879 337.121c10.289 0 16.717-7.667 16.717-16 0-8.267-6.358-16-16.717-16-28.712 0-52.071-23.359-52.071-52.071s23.359-52.071 52.071-52.071c10.289 0 16.717-7.667 16.717-16 0-8.267-6.358-16-16.717-16-46.357 0-84.071 37.714-84.071 84.071s37.714 84.071 84.071 84.071z"/><path d="m230.363 230.062h8.837c0 49.192 2.616 49.743-18.324 82.429-6.856 10.7.949 24.633 13.457 24.633 5.271 0 10.433-2.603 13.487-7.371l7.364-11.494c18.928-29.543 16.016-53.392 16.016-88.196h11.501v91.06c0 8.837 7.164 16 16 16s16-7.163 16-16v-91.06c11.025 0 17.036-7.989 17.036-16 0-8.837-7.164-16-16-16h-85.374c-8.836 0-16 7.163-16 16s7.164 15.999 16 15.999z"/><path d="m409.308 331.698c9.718 11.002 27.983 4.155 27.983-10.577v-136.142c0-8.837-7.164-16-16-16s-16 7.163-16 16v54.21c-33.286-13.297-69.544 11.394-69.544 47.16 0 37.914 40.083 62.241 73.561 45.349zm-22.788-64.122c10.351 0 18.772 8.421 18.772 18.772s-8.421 18.772-18.772 18.772-18.772-8.421-18.772-18.772 8.42-18.772 18.772-18.772z"/><path d="m154.74 239.369c0 8.837 7.164 16 16 16h19.973c8.836 0 16-7.163 16-16s-7.164-16-16-16h-19.973c-8.837 0-16 7.163-16 16z"/><path d="m190.712 262.14h-19.972c-8.836 0-16 7.163-16 16s7.164 16 16 16h19.973c8.836 0 16-7.163 16-16s-7.164-16-16.001-16z"/></g></svg>