<svg id="Layer_1" enable-background="new 0 0 506.091 506.091" height="512" viewBox="0 0 506.091 506.091" width="512" xmlns="http://www.w3.org/2000/svg"><path d="m497.86 375.495-473.118-273.433c-10.967-6.341-24.742 1.583-24.742 14.277v273.434c0 9.107 7.383 16.49 16.491 16.49h473.118c16.813 0 22.807-22.357 8.251-30.768z" fill="#80b9ed"/><path d="m24.742 102.062c-10.967-6.341-24.742 1.583-24.742 14.277v198.958c48.757 27.743 128.743 56.974 196.554 5.006 38.233-29.3 85.369-40.923 129.993-43.816z" fill="#8bc4ff"/><path d="m143.482 191.654c22.304 9.15 42.936 13.624 61.815 14.757l-180.555-104.349c-10.967-6.341-24.742 1.583-24.742 14.277v58.77c39.194-6.653 88.818-5.88 143.482 16.545z" fill="#a2d0f9"/><path d="m489.609 406.263h-473.118c-9.108 0-16.491-7.383-16.491-16.491v-273.433c0-12.67 13.754-20.63 24.742-14.277l473.118 273.433c14.558 8.412 8.56 30.768-8.251 30.768zm-456.628-32.981h395.139l-395.139-228.366z" fill="#2e58ff"/></svg>