<svg id="Layer_1" enable-background="new 0 0 509.058 509.058" height="512" viewBox="0 0 509.058 509.058" width="512" xmlns="http://www.w3.org/2000/svg"><path d="m506.983 383.272-151.034-273.433c-2.902-5.255-8.432-8.517-14.435-8.517h-289.966c-8.297 0-15.302 6.164-16.356 14.394l-35.056 273.433c-1.264 9.854 6.424 18.587 16.356 18.587h476.056c12.535 0 20.502-13.482 14.435-24.464z" fill="#80b9ed"/><path d="m355.949 109.839c-2.902-5.255-8.432-8.517-14.435-8.517h-289.966c-8.297 0-15.302 6.164-16.356 14.394l-25.764 200.96c62.753 41.613 153.928 76.348 249.135 23.041 87.308-48.885 145.812-68.659 182.215-76.304z" fill="#8bc4ff"/><path d="m194.585 163.291c51.181 38.849 142.495 46.97 216.178 45.786l-54.815-99.238c-2.902-5.255-8.432-8.517-14.435-8.517h-289.965c-8.297 0-15.302 6.164-16.356 14.394l-2.533 19.762c52.031-8.758 114.414-8.251 161.926 27.813z" fill="#a2d0f9"/><path d="m492.548 407.736h-476.055c-9.935 0-17.62-8.735-16.356-18.587l35.055-273.434c1.055-8.229 8.06-14.394 16.356-14.394h289.966c6.003 0 11.532 3.262 14.435 8.517l151.034 273.434c6.061 10.971-1.888 24.464-14.435 24.464zm-457.315-32.98h429.369l-132.818-240.454h-265.725z" fill="#2e58ff"/></svg>