<svg id="Layer_1" enable-background="new 0 0 512.685 512.685" height="512" viewBox="0 0 512.685 512.685" width="512" xmlns="http://www.w3.org/2000/svg"><path d="m496.177 259.825h-389.731c-6.144 0-11.778 3.415-14.62 8.862l-89.938 172.381c-5.72 10.964 2.249 24.118 14.62 24.118h389.731c6.144 0 11.778-3.415 14.62-8.862l89.938-172.381c5.719-10.964-2.249-24.118-14.62-24.118z" fill="#80b9ed"/><path d="m510.797 283.943c5.72-10.964-2.249-24.118-14.62-24.118h-389.731c-6.144 0-11.778 3.415-14.62 8.862l-58.377 111.89c65.671 28.635 156.96 56.428 222.894 7.957 54.2-39.845 135.75-27.3 203.332-6.607z" fill="#8bc4ff"/><path d="m344.479 311.089c48.736 24.79 93.927 34.211 134.091 34.621l32.227-61.768c5.72-10.964-2.249-24.118-14.62-24.118h-302.518c50.497 10.483 102.439 26.655 150.82 51.265z" fill="#a2d0f9"/><path d="m496.177 259.825h-223.345v-195.836c0-9.107-7.383-16.49-16.49-16.49s-16.49 7.383-16.49 16.49v195.836h-133.406c-6.144 0-11.778 3.415-14.62 8.862l-89.938 172.381c-5.72 10.964 2.249 24.118 14.62 24.118h389.731c6.144 0 11.778-3.415 14.62-8.862l89.938-172.381c5.719-10.964-2.249-24.118-14.62-24.118zm-99.934 172.381h-352.532l72.73-139.4h123.41v69.7c0 9.107 7.383 16.49 16.49 16.49s16.49-7.383 16.49-16.49v-69.7h196.141z" fill="#2e58ff"/></svg>