<svg id="Layer_1" enable-background="new 0 0 508.396 508.396" height="512" viewBox="0 0 508.396 508.396" width="512" xmlns="http://www.w3.org/2000/svg"><path d="m500.151 359.654-50.965-29.424v-58.764c0-5.892-3.143-11.336-8.245-14.281l-51.058-29.478v-59.156c0-5.892-3.143-11.336-8.245-14.281l-50.966-29.424v-58.765c0-5.892-3.143-11.336-8.245-14.281l-59.21-34.185c-5.102-2.945-11.389-2.945-16.49 0l-59.209 34.185c-5.103 2.945-8.245 8.39-8.245 14.281v58.764l-50.965 29.424c-5.103 2.945-8.245 8.39-8.245 14.281v58.261l-52.607 30.373c-5.103 2.945-8.245 8.39-8.245 14.281v58.764l-50.966 29.425c-5.102 2.945-8.245 8.39-8.245 14.281v68.37c0 5.892 3.143 11.336 8.245 14.281 65.875 38.033 61.502 36.394 67.455 36.394 6.01 0 3.061.784 60.031-32.107 56.13 32.406 54.053 32.107 60.031 32.107 6.002 0 3.15.733 59.21-31.633 56.014 32.339 53.249 31.633 59.21 31.633 5.96 0 3.076.775 59.257-31.66 56.237 32.468 53.319 31.66 59.256 31.66 6.202 0 4.402.01 67.455-36.394 5.103-2.945 8.245-8.39 8.245-14.281v-68.37c.001-5.891-3.141-11.336-8.244-14.281z" fill="#80b9ed"/><path d="m440.941 257.184-51.058-29.478v-59.156c0-5.892-3.143-11.336-8.245-14.281l-50.966-29.424v-58.764c0-5.892-3.143-11.336-8.245-14.281l-59.21-34.185c-5.102-2.945-11.389-2.945-16.49 0l-59.209 34.185c-5.103 2.945-8.245 8.39-8.245 14.281v58.764l-50.965 29.424c-5.103 2.945-8.245 8.39-8.245 14.281v58.261l-52.607 30.373c-5.103 2.945-8.245 8.39-8.245 14.281v58.764l-29.798 17.204c41.934 42.222 122.45 98.771 218.905 43.952 56.862-32.317 131.596-54.509 200.87-69.509v-50.411c-.001-5.891-3.144-11.335-8.247-14.281z" fill="#8bc4ff"/><path d="m215.526 184.397c69.37 39.715 141.866 53.979 197.471 56.654l-23.114-13.345v-59.156c0-5.892-3.143-11.336-8.245-14.281l-50.966-29.424v-58.764c0-5.892-3.143-11.336-8.245-14.281l-59.21-34.185c-5.102-2.945-11.389-2.945-16.49 0l-59.209 34.185c-5.103 2.945-8.245 8.39-8.245 14.281v58.764l-47.609 27.487c23.873 4.009 51.683 13.642 83.862 32.065z" fill="#a2d0f9"/><path d="m500.151 359.654-50.965-29.424v-58.764c0-5.892-3.143-11.336-8.245-14.281l-51.058-29.478v-59.156c0-5.892-3.143-11.336-8.245-14.281l-50.966-29.424v-58.765c0-5.892-3.143-11.336-8.245-14.281l-59.21-34.185c-5.102-2.945-11.389-2.945-16.49 0l-59.209 34.185c-5.103 2.945-8.245 8.39-8.245 14.281v58.764l-50.965 29.424c-5.103 2.945-8.245 8.39-8.245 14.281v58.261l-52.607 30.373c-5.103 2.945-8.245 8.39-8.245 14.281v58.764l-50.966 29.425c-5.102 2.945-8.245 8.39-8.245 14.281v68.37c0 5.892 3.143 11.336 8.245 14.281 65.875 38.033 61.502 36.394 67.455 36.394 6.01 0 3.061.784 60.031-32.107 56.13 32.406 54.053 32.107 60.031 32.107 6.002 0 3.15.733 59.21-31.633 56.014 32.339 53.249 31.633 59.21 31.633 5.96 0 3.076.775 59.257-31.66 56.237 32.468 53.319 31.66 59.256 31.66 6.202 0 4.402.01 67.455-36.394 5.103-2.945 8.245-8.39 8.245-14.281v-68.37c.001-5.891-3.141-11.336-8.244-14.281zm-245.178-4.76-42.72-24.664v-49.244l42.72-24.663 42.72 24.663v49.244zm161.233-24.664-42.766 24.691-42.673-24.637v-49.298l42.72-24.663 42.72 24.663v49.244zm-59.303-102.83-42.721 24.664-42.72-24.664v-49.244l42.794-24.707 42.647 24.621zm-101.93-176.462 42.72 24.663v49.244l-42.72 24.664-42.72-24.664v-49.244zm-101.93 127.133 42.646-24.621 42.794 24.707v49.243l-42.72 24.663-42.72-24.663zm-18.133 78.252 42.72 24.663v49.329l-42.646 24.621-42.794-24.706v-49.244zm-59.21 201.125-42.72-24.663v-49.329l42.646-24.621 42.794 24.707v49.244zm120.063 0-42.72-24.663v-49.329l42.646-24.621 42.794 24.707v49.244zm118.42.001-42.72-24.664v-49.244l42.767-24.691 42.674 24.637v49.297zm161.233-24.664-42.72 24.663-42.72-24.663v-49.244l42.794-24.707 42.646 24.621z" fill="#2e58ff"/></svg>