<svg id="Layer_1" enable-background="new 0 0 506.939 506.939" height="512" viewBox="0 0 506.939 506.939" width="512" xmlns="http://www.w3.org/2000/svg"><path d="m458.645 0h-204.9c-9.107 0-16.49 7.383-16.49 16.49v473.959c0 9.107 7.383 16.49 16.49 16.49h204.899c9.107 0 16.49-7.383 16.49-16.49v-473.959c.001-9.107-7.382-16.49-16.489-16.49z" fill="#8bc4ff"/><path d="m156.27 0h-78.534c-25.327 0-45.931 20.604-45.931 45.932v354.088c0 3.604 1.18 7.107 3.359 9.977l68.708 90.43c6.603 8.686 19.671 8.671 26.262 0l68.708-90.43c2.18-2.869 3.359-6.373 3.359-9.977v-354.088c0-25.328-20.604-45.932-45.931-45.932z" fill="#80b9ed"/><path d="m185.711 90.99h-137.416c-9.107 0-16.49 7.383-16.49 16.49v292.54c0 9.107 7.383 16.49 16.49 16.49h137.416c9.107 0 16.49-7.383 16.49-16.49v-292.54c0-9.107-7.383-16.49-16.49-16.49z" fill="#a2d0f9"/><path d="m475.135 490.449v-222.115c-9.184 14.084-18.656 29.829-28.375 47.444-58.052 105.22-146.145 77.991-209.505 37.006v137.665c0 9.107 7.383 16.49 16.49 16.49h204.899c9.108 0 16.491-7.382 16.491-16.49z" fill="#80b9ed"/><path d="m458.645 0h-204.9c-9.107 0-16.49 7.383-16.49 16.49v92.821c30.491.225 69.618 12.5 118.94 49.673 43.037 32.437 83.522 45.569 118.94 48.01v-190.504c0-9.107-7.383-16.49-16.49-16.49z" fill="#a2d0f9"/><path d="m185.711 90.99h-137.416c-9.107 0-16.49 7.383-16.49 16.49v85.638c25.561 3.901 57.97 17.363 98.878 47.209 24.656 17.988 48.71 29.137 71.519 35.1v-167.947c-.001-9.107-7.384-16.49-16.491-16.49z" fill="#b4dcf9"/><g fill="#2e58ff"><path d="m458.645 0h-204.9c-9.107 0-16.49 7.383-16.49 16.49v473.959c0 9.107 7.383 16.49 16.49 16.49h204.899c9.107 0 16.49-7.383 16.49-16.49v-473.959c.001-9.107-7.382-16.49-16.489-16.49zm-16.491 473.959h-171.919v-62.967h56.507c9.107 0 16.49-7.383 16.49-16.49s-7.383-16.49-16.49-16.49h-56.507v-61.041h28.783c9.107 0 16.49-7.383 16.49-16.49s-7.383-16.49-16.49-16.49h-28.783v-61.041h28.783c9.107 0 16.49-7.383 16.49-16.49s-7.383-16.49-16.49-16.49h-28.783v-61.041h56.507c9.107 0 16.49-7.383 16.49-16.49s-7.383-16.49-16.49-16.49h-56.507v-62.969h171.919z"/><path d="m156.27 0h-78.534c-25.327 0-45.931 20.604-45.931 45.932v354.088c0 3.604 1.18 7.107 3.359 9.977l68.708 90.43c6.603 8.686 19.671 8.671 26.262 0l68.708-90.43c2.18-2.869 3.359-6.373 3.359-9.977 0-18.921 0-348.593 0-354.088 0-25.328-20.604-45.932-45.931-45.932zm-91.485 123.971h104.436v259.559h-104.436zm12.951-90.991h78.533c7.142 0 12.951 5.81 12.951 12.951v45.059h-104.435v-45.058c0-7.142 5.81-12.952 12.951-12.952zm39.267 430.211-35.469-46.681h70.938z"/></g></svg>