<svg id="Layer_1" enable-background="new 0 0 506.1 506.1" height="512" viewBox="0 0 506.1 506.1" width="512" xmlns="http://www.w3.org/2000/svg"><path d="m489.609 0h-473.118c-9.108 0-16.491 7.383-16.491 16.491v473.118c0 9.107 7.383 16.491 16.491 16.491h473.118c9.107 0 16.491-7.383 16.491-16.491v-473.118c0-9.108-7.384-16.491-16.491-16.491z" fill="#a2d0f9"/><path d="m306.827 146.374c-92.334-43.662-223.152-8.999-306.827 22.372v320.863c0 9.107 7.383 16.491 16.491 16.491h473.118c9.107 0 16.491-7.383 16.491-16.491v-346.085c-49.714 23.302-121.26 39.74-199.273 2.85z" fill="#8bc4ff"/><path d="m506.1 489.609v-164.022c-27.896-15.857-243.388-119.388-413.146-8.53-35.35 23.084-66.199 37.495-92.954 45.755v126.797c0 9.107 7.383 16.491 16.491 16.491h473.118c9.107 0 16.491-7.384 16.491-16.491z" fill="#80b9ed"/><g fill="#2e58ff"><path d="m78.261 392.414h5.275c30.638 0 55.563-24.926 55.563-55.563v-43.345h13.458c8.837 0 16-7.164 16-16s-7.163-16-16-16h-13.457v-92.257c0-12.993 10.57-23.563 23.563-23.563 8.837 0 16-7.164 16-16s-7.163-16-16-16c-30.638 0-55.563 24.926-55.563 55.563v92.257h-16.171c-8.837 0-16 7.164-16 16s7.163 16 16 16h16.171v43.345c0 12.993-10.57 23.563-23.563 23.563h-5.275c-8.837 0-16 7.164-16 16s7.162 16 15.999 16z"/><path d="m265.015 208.733c0 8.836 7.163 16 16 16h3.413c9.634 0 17.472 7.837 17.472 17.471v21.692c0 9.633-7.838 17.471-17.472 17.471h-3.413c-8.837 0-16 7.164-16 16s7.163 16 16 16h3.413c12.898 0 24.656-4.967 33.471-13.082 8.816 8.115 20.573 13.082 33.471 13.082h3.414c8.837 0 16-7.164 16-16s-7.163-16-16-16h-3.414c-9.634 0-17.471-7.837-17.471-17.471v-21.692c0-9.633 7.837-17.471 17.471-17.471h3.414c8.837 0 16-7.164 16-16s-7.163-16-16-16h-3.414c-12.898 0-24.655 4.967-33.471 13.082-8.816-8.115-20.573-13.082-33.471-13.082h-3.413c-8.837 0-16 7.163-16 16z"/><path d="m260.708 359.277c8.837 0 16-7.164 16-16s-7.163-16-16-16c-22.744 0-41.248-18.503-41.248-41.248v-65.96c0-22.744 18.504-41.248 41.248-41.248 8.837 0 16-7.164 16-16s-7.163-16-16-16c-40.389 0-73.248 32.859-73.248 73.248v65.96c0 40.389 32.859 73.248 73.248 73.248z"/><path d="m370.591 178.822c22.744 0 41.248 18.503 41.248 41.248v65.96c0 22.744-18.504 41.248-41.248 41.248-8.837 0-16 7.164-16 16s7.163 16 16 16c40.389 0 73.248-32.859 73.248-73.248v-65.96c0-40.389-32.859-73.248-73.248-73.248-8.837 0-16 7.164-16 16s7.163 16 16 16z"/><path d="m489.609 506.1h-473.118c-9.108 0-16.491-7.384-16.491-16.491v-473.118c0-9.108 7.383-16.491 16.491-16.491h473.119c9.107 0 16.49 7.383 16.49 16.491v473.118c0 9.107-7.383 16.491-16.491 16.491zm-456.628-32.982h440.138v-440.137h-440.138z"/></g></svg>