<svg id="Layer_1" enable-background="new 0 0 507.367 507.367" height="512" viewBox="0 0 507.367 507.367" width="512" xmlns="http://www.w3.org/2000/svg"><path d="m420.371 0h-333.375c-9.107 0-16.49 7.383-16.49 16.49v474.387c0 9.107 7.383 16.49 16.49 16.49h333.375c9.107 0 16.49-7.383 16.49-16.49v-474.387c0-9.107-7.382-16.49-16.49-16.49z" fill="#80b9ed"/><path d="m436.861 490.877v-265.95c-107.004 30.699-234.869 222.869-366.355 167.352v98.598c0 9.107 7.383 16.49 16.49 16.49h333.375c9.108 0 16.49-7.383 16.49-16.49z" fill="#8bc4ff"/><path d="m436.861 183.6v-167.11c0-9.107-7.383-16.49-16.49-16.49h-333.375c-9.107 0-16.49 7.383-16.49 16.49v83.521c51.809-18.704 135.929-23.662 252.202 48.702 46.317 28.826 83.821 38.025 114.153 34.887z" fill="#a2d0f9"/><g fill="#2e58ff"><path d="m420.371 0h-333.375c-9.107 0-16.49 7.383-16.49 16.49v474.387c0 9.107 7.383 16.49 16.49 16.49h333.375c9.107 0 16.49-7.383 16.49-16.49v-474.387c0-9.107-7.382-16.49-16.49-16.49zm-16.49 474.387h-300.395v-441.407h300.395z"/><path d="m169.465 382.474c2.885 0 5.807-.758 8.461-2.349 53.765-32.22 111.054-44.611 172.172-26.725 8.742 2.563 17.901-2.453 20.459-11.194s-2.455-17.9-11.195-20.459c-66.063-19.332-132.813-9.211-198.389 30.089-14.316 8.579-8.185 30.638 8.492 30.638z"/><path d="m268.206 144.487c-5.114-12.509-22.486-12.236-27.505.02l-47.849 119.732c-3.828 8.914 2.914 20.279 13.627 20.279 5.981 0 11.471-3.76 13.65-9.328l8.345-20.674h51.97l8.335 20.646c5.816 14.865 28.333 11.16 28.333-5.317-.001-4.279 3.651 6.144-48.906-125.358zm.389 80.687h-28.258l14.208-35.604z"/></g></svg>