<svg id="Layer_1" enable-background="new 0 0 510.801 510.801" height="512" viewBox="0 0 510.801 510.801" width="512" xmlns="http://www.w3.org/2000/svg"><path d="m454.199 370.261-43.951-139.604c-2.162-6.867-8.529-11.538-15.729-11.538h-278.172c-7.2 0-13.567 4.671-15.729 11.538l-43.952 139.602c-16.227 51.546 17.827 105.201 71.354 112.752 84.717 11.949 170.658 11.927 255.408-.083 53.146-7.532 86.974-61.202 70.771-112.667z" fill="#80b9ed"/><path d="m394.519 205.777h-278.172c-9.107 0-16.49 7.383-16.49 16.49v114.153c0 85.784 69.791 155.575 155.576 155.575s155.576-69.791 155.576-155.575v-114.153c0-9.108-7.383-16.49-16.49-16.49z" fill="#a2d0f9"/><path d="m394.519 83.585h-278.172c-9.107 0-16.49 7.383-16.49 16.49v144.058c0 8.412 6.332 15.476 14.694 16.393 93.473 10.243 188.285 10.244 281.765 0 8.362-.917 14.694-7.98 14.694-16.393v-144.057c-.001-9.108-7.384-16.491-16.491-16.491z" fill="#80b9ed"/><path d="m499.803 103.568-238.91-83.832c-3.534-1.24-7.386-1.24-10.92 0l-238.911 83.832c-15.063 5.286-14.524 26.898.832 31.389l238.91 69.86c6.616 1.933-13.528 6.662 248.167-69.86 15.322-4.481 15.929-26.091.832-31.389z" fill="#a2d0f9"/><path d="m451.583 86.648-190.69-66.912c-3.534-1.24-7.386-1.24-10.92 0-1.968.69-162.963 57.182-183.907 64.531 31.918 31.526 87.64 70.301 178.633 34.957 91.481-35.533 167.967-33.572 206.884-32.576z" fill="#b4dcf9"/><path d="m281.724 355.557c-59.917 34.986-128.181 22.403-180.445 1.863 10.286 75.888 75.49 134.575 154.154 134.575 85.785 0 155.576-69.791 155.576-155.575v-24.049c-41.535 6.105-87.368 18.711-129.285 43.186z" fill="#b4dcf9"/><g fill="#2e58ff"><path d="m286.985 380.397c-20.482 12.606-40.724 12.496-63.702-.35-7.948-4.443-17.996-1.603-22.44 6.347s-1.603 17.996 6.347 22.44c32.168 17.984 65.825 18.888 97.083-.35 7.756-4.773 10.174-14.931 5.4-22.688-4.775-7.756-14.934-10.172-22.688-5.399z"/><path d="m226.953 334.597c0-9.224-7.477-16.701-16.701-16.701s-16.701 7.477-16.701 16.701 7.477 16.701 16.701 16.701 16.701-7.477 16.701-16.701z"/><path d="m300.613 317.896c-9.224 0-16.701 7.477-16.701 16.701s7.477 16.701 16.701 16.701 16.701-7.478 16.701-16.701-7.477-16.701-16.701-16.701z"/><path d="m499.804 103.568-238.911-83.832c-3.534-1.24-7.385-1.24-10.92 0l-238.911 83.832c-6.578 2.309-10.961 8.496-11.017 15.426-.092 1.415-.014-8.143-.014 103.273 0 9.107 7.383 16.49 16.491 16.49s16.491-7.383 16.491-16.49v-81.135l66.844 19.546v72.396l-43.19 137.186c-16.227 51.546 17.827 105.201 71.354 112.752 85.403 12.046 171.5 11.807 255.408-.083 53.146-7.532 86.973-61.202 70.771-112.667l-43.19-137.188v-72.396l87.963-25.721c15.32-4.481 15.928-26.092.831-31.389zm-367.177 346.785c-33.434-4.715-54.589-38.148-44.502-70.189l11.86-37.673c1.693 43.876 21.639 83.146 52.448 110.419-6.608-.78-13.211-1.627-19.806-2.557zm126.434 8.604c-74.927.317-126.225-57.652-126.225-122.537v-74.025c79.838 7.596 162.114 7.905 245.191 0v74.025c.001 66.385-53.038 120.61-118.966 122.537zm-126.224-229.694v-58.941l117.967 34.495c6.614 1.932-.13 2.745 127.224-34.495v58.941c-81.427 7.955-163.76 7.956-245.191 0zm289.903 150.902c10.06 31.952-10.874 65.423-43.938 70.108-6.783.961-13.574 1.835-20.371 2.637 30.809-27.272 50.756-66.543 52.448-110.42zm-167.307-208.357-134.205-39.243 134.687-3.938c9.104-.266 16.268-7.862 16.001-16.965-.267-9.104-7.855-16.282-16.965-16.002l-136.196 5.072 136.678-47.959 185.037 64.928z"/></g></svg>