<svg id="Layer_1" enable-background="new 0 0 510.769 510.769" height="512" viewBox="0 0 510.769 510.769" width="512" xmlns="http://www.w3.org/2000/svg"><path d="m394.487 205.761h-278.172c-9.107 0-16.49 7.383-16.49 16.49v114.153c0 85.784 69.791 155.575 155.576 155.575s155.576-69.791 155.576-155.575v-114.153c.001-9.107-7.382-16.49-16.49-16.49z" fill="#a2d0f9"/><path d="m394.487 83.57h-278.172c-9.107 0-16.49 7.383-16.49 16.49v144.058c0 8.412 6.332 15.476 14.694 16.393 93.473 10.243 188.285 10.244 281.765 0 8.362-.917 14.694-7.98 14.694-16.393v-144.058c0-9.108-7.383-16.49-16.491-16.49z" fill="#80b9ed"/><path d="m499.772 103.552-238.911-83.832c-3.534-1.24-7.386-1.24-10.92 0l-238.91 83.832c-15.063 5.286-14.524 26.898.832 31.389l238.91 69.86c6.616 1.933-13.528 6.662 248.167-69.86 15.322-4.481 15.929-26.091.832-31.389z" fill="#a2d0f9"/><path d="m451.552 86.632-190.691-66.912c-3.534-1.24-7.386-1.24-10.92 0-1.967.69-162.962 57.182-183.907 64.532 31.918 31.526 87.64 70.301 178.633 34.957 91.481-35.534 167.968-33.573 206.885-32.577z" fill="#b4dcf9"/><path d="m281.693 355.542c-59.917 34.986-128.181 22.403-180.445 1.863 10.286 75.888 75.49 134.575 154.154 134.575 85.785 0 155.576-69.791 155.576-155.575v-24.049c-41.535 6.105-87.368 18.71-129.285 43.186z" fill="#b4dcf9"/><g fill="#2e58ff"><path d="m210.221 305.497c-9.224 0-16.701 7.478-16.701 16.701 0 9.224 7.477 16.701 16.701 16.701s16.701-7.478 16.701-16.701c-.001-9.223-7.478-16.701-16.701-16.701z"/><path d="m300.582 338.899c9.224 0 16.701-7.478 16.701-16.701s-7.477-16.701-16.701-16.701-16.701 7.478-16.701 16.701c0 9.224 7.478 16.701 16.701 16.701z"/><path d="m271.068 405.655h-32.766c-9.107 0-16.49 7.383-16.49 16.49s7.383 16.49 16.49 16.49h32.766c9.107 0 16.49-7.383 16.49-16.49s-7.383-16.49-16.49-16.49z"/><path d="m499.772 103.552-238.911-83.832c-3.534-1.24-7.386-1.24-10.92 0l-238.91 83.832c-6.574 2.307-10.955 8.487-11.017 15.412-.003.049-.014 103.287-.014 103.287 0 9.107 7.383 16.49 16.491 16.49s16.491-7.383 16.491-16.49v-81.135l66.844 19.546v175.743c0 85.784 69.791 155.575 155.576 155.575s155.576-69.791 155.576-155.575c0-21.161 0-156.748 0-175.743l87.962-25.721c15.322-4.481 15.929-26.091.832-31.389zm-291.177 346.153v-19.16c0-20.863 16.973-37.837 37.836-37.837h17.939c20.863 0 37.836 16.974 37.836 37.837v19.16c-29.874 12.388-63.689 12.408-93.611 0zm169.402-113.3c0 37.168-16.63 70.523-42.837 93.024-.601-38.534-32.115-69.701-70.789-69.701h-17.939c-38.674 0-70.188 31.167-70.789 69.701-26.207-22.501-42.837-55.856-42.837-93.024v-74.025c79.839 7.596 162.115 7.905 245.191 0zm0-107.158c-81.43 7.955-163.762 7.955-245.191 0v-58.941c129.21 37.783 119.218 35.157 122.596 35.157s-6.769 2.671 122.596-35.157v58.941zm-122.596-57.455-134.205-39.243 134.687-3.938c9.104-.266 16.268-7.862 16.001-16.965-.266-9.104-7.849-16.282-16.965-16.002l-135.788 4.929 136.27-47.816 185.037 64.928z"/></g></svg>