<svg id="Layer_1" enable-background="new 0 0 510.769 510.769" height="512" viewBox="0 0 510.769 510.769" width="512" xmlns="http://www.w3.org/2000/svg"><path d="m467.341 344.586c1.926-8.109 14.226-24.778 7.455-41.039-6.381-15.322-24.394-18.33-33.276-22.996.333-9.562 6.025-27.24-4.21-40.28-10.29-13.112-26.936-10.152-33.067-11.15-2.541-2.204-5.706-3.586-9.073-3.942-29.454-3.111-31.118-20.037-70.222-20.035-21.79 0-33.546 6.762-42.993 12.195-7.877 4.53-13.568 7.804-26.548 7.805-27.851 0-30.451-20.002-69.545-20-39.514 0-40.474 16.893-70.227 20.035-3.396.359-6.583 1.761-9.132 3.993-6.285.878-22.428-1.669-32.352 11.422-9.806 12.939-4.055 29.484-3.365 39.564-9.1 4.47-26.486 7.461-32.791 22.443-6.765 16.078 5.205 32.04 7.301 40.439-4.349 9.738-24.882 24.429-21.266 45.425 3.84 22.3 31.387 29.97 35.764 36.456 4.275 6.34 1.203 34.881 20.297 46.801 12.585 7.854 26.546 3.743 37.764.439 12.95-3.812 13.657-5.642 35.751 7.996 13.152 8.119 26.058 15.782 41.831 15.782 24.135-.002 45.88-17.908 60.695-17.921 7.034-.006 16.728 4.472 23.663 7.514 34.345 15.066 47.228 14.058 78.865-5.54 22.164-13.733 22.706-11.835 35.467-7.983 11.125 3.359 24.967 7.538 37.527-.212 19.078-11.775 16.013-39.89 20.292-46.276 4.324-6.142 31.947-13.599 36.042-35.567 3.894-20.918-16.593-35.847-20.647-45.368z" fill="#80b9ed"/><path d="m394.487 201.8h-278.172c-9.107 0-16.49 7.383-16.49 16.49v114.153c0 85.784 69.791 155.575 155.576 155.575s155.576-69.791 155.576-155.575v-114.152c.001-9.108-7.382-16.491-16.49-16.491z" fill="#a2d0f9"/><path d="m394.487 79.609h-278.172c-9.107 0-16.49 7.383-16.49 16.49v144.058c0 8.412 6.332 15.476 14.694 16.393 93.473 10.243 188.285 10.244 281.765 0 8.362-.917 14.694-7.98 14.694-16.393v-144.058c0-9.107-7.383-16.49-16.491-16.49z" fill="#80b9ed"/><path d="m499.772 99.591-238.911-83.832c-3.534-1.24-7.386-1.24-10.92 0l-238.91 83.832c-15.063 5.286-14.524 26.898.832 31.389l238.91 69.86c6.616 1.933-13.528 6.662 248.167-69.86 15.322-4.481 15.929-26.091.832-31.389z" fill="#a2d0f9"/><path d="m451.552 82.671-190.69-66.912c-3.534-1.24-7.386-1.24-10.92 0-1.968.691-162.963 57.183-183.908 64.532 31.918 31.526 87.64 70.301 178.633 34.957 91.481-35.534 167.968-33.573 206.885-32.577z" fill="#b4dcf9"/><path d="m281.693 351.581c-59.917 34.986-128.181 22.403-180.445 1.863 10.286 75.888 75.49 134.575 154.154 134.575 85.785 0 155.576-69.791 155.576-155.575v-24.049c-41.535 6.105-87.368 18.71-129.285 43.186z" fill="#b4dcf9"/><g fill="#2e58ff"><path d="m200.811 382.417c-4.444 7.95-1.602 17.997 6.347 22.44 32.168 17.984 65.825 18.888 97.083-.35 7.756-4.773 10.174-14.931 5.4-22.688-4.774-7.756-14.93-10.173-22.688-5.4-20.482 12.606-40.725 12.495-63.702-.35-7.949-4.441-17.996-1.6-22.44 6.348z"/><circle cx="210.221" cy="330.621" r="16.701"/><path d="m300.582 347.321c9.224 0 16.701-7.477 16.701-16.701s-7.477-16.701-16.701-16.701-16.701 7.477-16.701 16.701 7.478 16.701 16.701 16.701z"/><path d="m499.772 99.591-238.911-83.832c-3.534-1.24-7.386-1.24-10.92 0l-238.91 83.832c-6.574 2.307-10.955 8.487-11.017 15.412-.003.05-.014 103.288-.014 103.288 0 9.107 7.383 16.49 16.491 16.49s16.491-7.383 16.491-16.49v-81.135l66.844 19.546v72.801c-7.362.268-18.275 1.329-25.675 11.091-9.806 12.939-4.055 29.484-3.365 39.564-9.1 4.47-26.486 7.461-32.791 22.443-6.765 16.078 5.205 32.04 7.301 40.439-4.349 9.738-24.882 24.429-21.266 45.425 3.84 22.3 31.387 29.97 35.764 36.456 4.275 6.34 1.203 34.881 20.297 46.801 19.044 11.885 42.145-3.595 50.974-2.354 15.71 2.186 35.295 24.674 60.996 26.456 13.901.959 26.548-4.152 39.141-9.69 16.385 2.57 33.081 2.517 49.534-.188 33.798 14.811 46.984 13.214 77.923-5.953 22.164-13.733 22.706-11.835 35.467-7.983 11.125 3.359 24.967 7.538 37.527-.212 19.078-11.775 16.013-39.89 20.292-46.276 4.324-6.142 31.947-13.599 36.042-35.567 3.897-20.918-16.59-35.846-20.644-45.367 1.926-8.109 14.226-24.778 7.455-41.039-6.381-15.322-24.394-18.33-33.276-22.996.333-9.562 6.025-27.24-4.21-40.28-7.674-9.778-18.94-10.611-26.332-10.816 0-16.616 0-57.808 0-72.754l87.962-25.721c15.32-4.483 15.927-26.093.83-31.391zm-402.046 343.607c-3.115-8.12-2.457-24.663-10.593-36.723-8.105-12.012-23.652-17.663-30.011-23.56 4.219-7.663 16.69-18.225 20.409-32.426 3.416-13.042-4.07-25.216-7.608-34.415 8.987-3.896 22.95-7.142 29.902-18.819v35.188c0 40.584 15.627 77.582 41.171 105.311-18.909-4.684-32.147 4.222-43.27 5.444zm280.271-184.78v74.025c0 67.599-54.996 122.595-122.596 122.595s-122.596-54.996-122.596-122.595v-74.025c79.84 7.597 162.116 7.905 245.192 0zm-245.191-33.131v-58.941l117.967 34.495c6.614 1.932-.13 2.745 127.224-34.495v58.941c-81.43 7.955-163.762 7.955-245.191 0zm310.174 91.607c-.726 1.945-1.764 4.298-2.556 6.096-9.424 21.372-9.072 30.437 8.166 52.268 1.942 2.46 4.939 6.256 6.294 8.676-2.166 1.867-6.594 4.474-9.448 6.154-20.555 12.1-24.937 18.508-28.899 41.93-.558 3.3-1.426 8.434-2.413 11.109-11.228-1.467-24.845-10.658-44.542-5.132 25.676-27.755 41.395-64.849 41.395-105.551v-38.069c6.05 14.305 21.579 17.828 32.003 22.519zm-187.579-149.062-134.205-39.243 134.687-3.938c9.104-.266 16.268-7.862 16.001-16.965-.266-9.104-7.849-16.282-16.965-16.002l-135.788 4.929 136.27-47.816 185.037 64.928z"/></g></svg>