<svg id="Layer_1" enable-background="new 0 0 511.887 511.887" height="512" viewBox="0 0 511.887 511.887" width="512" xmlns="http://www.w3.org/2000/svg"><path d="m508.465 369.86-238.751-362.449c-6.503-9.873-21.029-9.891-27.543 0l-238.751 362.449c-5.463 8.292-2.407 19.533 6.549 23.896 260.05 126.706 240.398 117.994 245.974 117.994 5.557 0-14.553 8.944 245.974-117.995 8.927-4.348 12.028-15.578 6.548-23.895z" fill="#80b9ed"/><path d="m47.663 302.694c45.26 39.393 136.81 93.008 248.476 18.272 53.644-35.902 98.319-57.323 134.04-69.952l-160.465-243.603c-6.503-9.873-21.029-9.891-27.543 0z" fill="#8bc4ff"/><path d="m242.171 7.411-78.559 119.26c21.775 7.464 43.49 17.116 63.851 29.636 59.797 36.768 118.69 34.394 157.459 26l-115.208-174.896c-6.503-9.873-21.028-9.89-27.543 0z" fill="#a2d0f9"/><path d="m508.465 369.86-238.751-362.449c-6.503-9.873-21.029-9.891-27.543 0l-238.751 362.449c-5.463 8.292-2.407 19.533 6.549 23.896 260.05 126.706 240.398 117.994 245.974 117.994 5.557 0-14.553 8.944 245.974-117.995 8.927-4.348 12.028-15.578 6.548-23.895zm-236.032-298.366 182.57 277.16-182.57-59.491zm-32.981 217.669-182.57 59.491 182.57-277.16zm0 34.687v145.031l-178.369-86.909zm32.981 0 178.369 58.122-178.369 86.909z" fill="#2e58ff"/></svg>