<svg id="Layer_1" enable-background="new 0 0 506.1 506.1" height="512" viewBox="0 0 506.1 506.1" width="512" xmlns="http://www.w3.org/2000/svg"><path d="m489.609 0h-473.118c-9.108 0-16.491 7.383-16.491 16.491v473.118c0 9.107 7.383 16.491 16.491 16.491h473.118c9.107 0 16.491-7.383 16.491-16.491v-473.118c0-9.108-7.384-16.491-16.491-16.491z" fill="#a2d0f9"/><path d="m306.827 146.374c-92.334-43.662-223.152-8.999-306.827 22.372v320.863c0 9.107 7.383 16.491 16.491 16.491h473.118c9.107 0 16.491-7.383 16.491-16.491v-346.085c-49.714 23.302-121.26 39.74-199.273 2.85z" fill="#8bc4ff"/><g fill="#2e58ff"><path d="m489.609 506.1h-473.118c-9.108 0-16.491-7.384-16.491-16.491v-473.118c0-9.108 7.383-16.491 16.491-16.491h473.119c9.107 0 16.49 7.383 16.49 16.491v473.118c0 9.107-7.383 16.491-16.491 16.491zm-456.628-32.982h440.138v-440.137h-440.138z"/><path d="m88.144 375.858c11.759 11.759 31.623-.168 26.553-16.161h122.353v31.441c-15.973-5.066-27.935 14.779-16.161 26.552l20.847 20.847c6.248 6.248 16.379 6.249 22.628 0l20.847-20.847c11.756-11.756-.163-31.626-16.161-26.552v-31.441h122.354c-5.065 15.974 14.779 27.934 26.552 16.161l20.847-20.847c6.249-6.249 6.249-16.379 0-22.627l-20.847-20.847c-11.759-11.759-31.624.168-26.553 16.161h-122.353v-10.126c27.799-7.492 53.152-34.501 72.608-77.926 20.37-45.465 32.053-104.063 32.053-160.77 0-8.836-7.164-16-16-16s-16 7.164-16 16c0 91.563-33.079 182.425-72.661 204.287v-168.201c15.971 5.065 27.937-14.777 16.161-26.552l-20.847-20.847c-6.249-6.249-16.379-6.249-22.628 0l-20.847 20.847c-11.756 11.755.162 31.627 16.161 26.553v168.201c-15.285-8.442-30.725-28.3-43.405-56.601-18.592-41.498-29.256-95.327-29.256-147.686 0-8.836-7.164-16-16-16s-16 7.164-16 16c0 56.707 11.683 115.305 32.053 160.77 19.456 43.425 44.809 70.435 72.608 77.926v10.126h-122.354c5.065-15.973-14.778-27.936-26.553-16.161l-20.847 20.847c-6.248 6.249-6.248 16.379 0 22.627z"/></g></svg>