<svg id="Layer_1" enable-background="new 0 0 506.1 506.1" height="512" viewBox="0 0 506.1 506.1" width="512" xmlns="http://www.w3.org/2000/svg"><path d="m489.609 0h-473.118c-9.108 0-16.491 7.383-16.491 16.491v473.118c0 9.107 7.383 16.491 16.491 16.491h473.118c9.107 0 16.491-7.383 16.491-16.491v-473.118c0-9.108-7.384-16.491-16.491-16.491z" fill="#a2d0f9"/><path d="m306.827 146.374c-92.334-43.662-223.152-8.999-306.827 22.372v320.863c0 9.107 7.383 16.491 16.491 16.491h473.118c9.107 0 16.491-7.383 16.491-16.491v-346.085c-49.714 23.302-121.26 39.74-199.273 2.85z" fill="#8bc4ff"/><path d="m506.1 489.609v-164.022c-27.896-15.857-243.388-119.388-413.146-8.53-35.35 23.084-66.199 37.495-92.954 45.755v126.797c0 9.107 7.383 16.491 16.491 16.491h473.118c9.107 0 16.491-7.384 16.491-16.491z" fill="#80b9ed"/><g fill="#2e58ff"><path d="m489.609 506.1h-473.118c-9.108 0-16.491-7.384-16.491-16.491v-473.118c0-9.108 7.383-16.491 16.491-16.491h473.119c9.107 0 16.49 7.383 16.49 16.491v473.118c0 9.107-7.383 16.491-16.491 16.491zm-456.628-32.982h440.138v-440.137h-440.138z"/><path d="m237.05 128.757v108.293h-104.946c2.999-15.546-16.093-25.557-27.154-14.217l-18.579 19.044c-6.063 6.215-6.063 16.131 0 22.346l18.579 19.044c10.911 11.187 30.185 1.494 27.154-14.217h104.946v108.292c-15.207-2.474-24.789 15.922-14.032 26.947l18.579 19.044c6.27 6.428 16.623 6.44 22.905 0l18.579-19.044c10.757-11.025 1.178-29.42-14.032-26.947v-108.292h104.946c-3.031 15.715 16.245 25.399 27.154 14.217l18.579-19.044c6.063-6.215 6.063-16.131 0-22.346l-18.579-19.044c-11.056-11.334-30.155-1.343-27.154 14.217h-104.945v-108.292c15.202 2.472 24.792-15.919 14.032-26.947l-18.579-19.044c-6.27-6.428-16.623-6.44-22.905 0l-18.579 19.044c-10.758 11.025-1.179 29.421 14.031 26.946z"/><path d="m68.826 201.106h19.245c63.134 0 114.498-52.469 114.498-116.962v-19.727c0-8.836-7.164-16-16-16s-16 7.164-16 16v19.727c0 46.849-37.008 84.962-82.498 84.962h-19.245c-8.836 0-16 7.164-16 16s7.164 16 16 16z"/><path d="m303.53 421.956v19.727c0 8.836 7.164 16 16 16s16-7.164 16-16v-19.727c0-46.849 37.008-84.962 82.498-84.962h19.245c8.836 0 16-7.164 16-16s-7.164-16-16-16h-19.245c-63.134-.001-114.498 52.468-114.498 116.962z"/></g></svg>