<svg id="Layer_1" enable-background="new 0 0 506.1 506.1" height="512" viewBox="0 0 506.1 506.1" width="512" xmlns="http://www.w3.org/2000/svg"><path d="m489.609 0h-473.118c-9.108 0-16.491 7.383-16.491 16.491v473.118c0 9.107 7.383 16.491 16.491 16.491h473.118c9.107 0 16.491-7.383 16.491-16.491v-473.118c0-9.108-7.384-16.491-16.491-16.491z" fill="#a2d0f9"/><path d="m306.827 146.374c-92.334-43.662-223.152-8.999-306.827 22.372v320.863c0 9.107 7.383 16.491 16.491 16.491h473.118c9.107 0 16.491-7.383 16.491-16.491v-346.085c-49.714 23.302-121.26 39.74-199.273 2.85z" fill="#8bc4ff"/><path d="m506.1 489.609v-164.022c-27.896-15.857-243.388-119.388-413.146-8.53-35.35 23.084-66.199 37.495-92.954 45.755v126.797c0 9.107 7.383 16.491 16.491 16.491h473.118c9.107 0 16.491-7.384 16.491-16.491z" fill="#80b9ed"/><g fill="#2e58ff"><path d="m489.609 506.1h-473.118c-9.108 0-16.491-7.384-16.491-16.491v-473.118c0-9.108 7.383-16.491 16.491-16.491h473.119c9.107 0 16.49 7.383 16.49 16.491v473.118c0 9.107-7.383 16.491-16.491 16.491zm-456.628-32.982h440.138v-440.137h-440.138z"/><path d="m90.807 373.924c11.67 11.67 31.285.048 26.672-15.799h29.633v30.234c-15.842-4.611-27.471 15-15.799 26.672l20.485 20.485c6.248 6.248 16.379 6.249 22.628 0l20.485-20.485c11.668-11.668.05-31.286-15.799-26.672v-30.234h209.508c-4.611 15.841 15.001 27.472 26.672 15.799l20.485-20.485c6.249-6.249 6.249-16.379 0-22.628l-20.485-20.485c-11.667-11.669-31.285-.05-26.672 15.799h-209.508v-208.385c15.895 4.626 27.408-15.063 15.799-26.672l-20.485-20.485c-6.249-6.249-16.379-6.249-22.628 0l-20.485 20.485c-11.668 11.668-.05 31.286 15.799 26.672v208.385h-29.633c4.616-15.858-15.008-27.463-26.672-15.799l-20.485 20.485c-6.249 6.249-6.249 16.379 0 22.628z"/><path d="m195.593 292.106c2.905 8.357 12.028 12.757 20.366 9.86 99.902-34.723 164.016-108.242 202.898-206.58 3.249-8.217-.778-17.513-8.996-20.762-8.219-3.251-17.514.778-20.762 8.996-38.339 96.96-98.41 158.494-183.646 188.12-8.347 2.902-12.761 12.02-9.86 20.366z"/></g></svg>