<svg id="Layer_1" enable-background="new 0 0 506.1 506.1" height="512" viewBox="0 0 506.1 506.1" width="512" xmlns="http://www.w3.org/2000/svg"><path d="m489.609 0h-473.118c-9.108 0-16.491 7.383-16.491 16.491v473.118c0 9.107 7.383 16.491 16.491 16.491h473.118c9.107 0 16.491-7.383 16.491-16.491v-473.118c0-9.108-7.384-16.491-16.491-16.491z" fill="#a2d0f9"/><path d="m306.827 146.374c-92.334-43.662-223.152-8.999-306.827 22.372v320.863c0 9.107 7.383 16.491 16.491 16.491h473.118c9.107 0 16.491-7.383 16.491-16.491v-346.085c-49.714 23.302-121.26 39.74-199.273 2.85z" fill="#8bc4ff"/><path d="m506.1 489.609v-164.022c-27.896-15.857-243.388-119.388-413.146-8.53-35.35 23.084-66.199 37.495-92.954 45.755v126.797c0 9.107 7.383 16.491 16.491 16.491h473.118c9.107 0 16.491-7.384 16.491-16.491z" fill="#80b9ed"/><g fill="#2e58ff"><path d="m489.609 506.1h-473.118c-9.108 0-16.491-7.384-16.491-16.491v-473.118c0-9.108 7.383-16.491 16.491-16.491h473.119c9.107 0 16.49 7.383 16.49 16.491v473.118c0 9.107-7.383 16.491-16.491 16.491zm-456.628-32.982h440.138v-440.137h-440.138z"/><path d="m94.308 371.383c11.466 11.468 30.859.447 26.788-15.324h28.103v28.69c-15.77-4.071-26.794 15.319-15.324 26.788l20.011 20.01c6.245 6.244 16.38 6.248 22.627 0l20.01-20.01c11.468-11.467.45-30.858-15.323-26.788v-28.69h203.806c-4.07 15.765 15.318 26.795 26.788 15.324l20.01-20.01c6.249-6.248 6.249-16.379 0-22.627l-20.01-20.01c-11.445-11.449-30.866-.471-26.788 15.324h-203.808v-202.71c15.786 4.073 26.753-15.359 15.323-26.788l-20.01-20.01c-6.244-6.245-16.381-6.248-22.627 0l-20.011 20.01c-11.469 11.468-.447 30.859 15.324 26.788v202.709h-28.103c4.071-15.769-15.32-26.793-26.788-15.324l-20.01 20.01c-6.249 6.248-6.249 16.379 0 22.627z"/></g></svg>