<svg height="398pt" viewBox="-9 0 398 398.688" width="398pt" xmlns="http://www.w3.org/2000/svg"><path d="m190 190.6875v64c56.71875 0 107.441406-25.28125 118-30.878906l-34.558594-56.640625-83.441406-136.480469zm0 0" fill="#cce4ff"/><path d="m27.65625 327.03125 84.65625-138.527344c19.289062 9.527344 40.175781 15.417969 61.6875 17.367188v192.816406h32v-128.65625c40.425781-2.96875 75.839844-16.304688 95.945312-25.464844l50.398438 82.472656 27.3125-16.6875-84.273438-137.902343.03125-.015625-84.855468-138.785156-20.558594-33.648438-20.558594 33.648438-84.855468 138.785156.03125.015625-84.273438 137.894531zm178.34375-239.472656 44.96875 73.585937c-14.128906 6.632813-29.410156 10.777344-44.96875 12.457031zm-76.96875 73.585937 44.96875-73.585937v86.050781c-15.558594-1.6875-30.839844-5.839844-44.96875-12.464844zm76.96875 76.785157v-32.058594c21.511719-1.960938 42.398438-7.839844 61.6875-17.367188l17.417969 28.503906c-17.449219 7.601563-46.609375 18.113282-79.105469 20.921876zm0 0" fill="#007aff"/></svg>