<svg height="384pt" viewBox="0 0 384 384" width="384pt" xmlns="http://www.w3.org/2000/svg"><path d="m64 64h256v256h-256zm0 0" fill="#cce4ff"/><g fill="#007aff"><path d="m0 384h384v-384h-384zm32-352h320v320h-320zm0 0"/><path d="m252.785156 153.585938c-15.503906 10.34375-36.296875 8.261718-49.472656-4.898438-23.914062-23.910156-61.6875-27.65625-89.839844-8.886719l-10.34375 6.894531 17.75 26.625 10.34375-6.894531c15.496094-10.320312 36.296875-8.273437 49.472656 4.894531 13.730469 13.71875 32.007813 20.800782 50.425782 20.800782 13.679687 0 27.429687-3.914063 39.421875-11.914063l10.34375-6.894531-17.75-26.625zm0 0"/><path d="m252.785156 217.414062c-15.503906 10.339844-36.296875 8.273438-49.472656-4.894531-23.914062-23.910156-61.6875-27.65625-89.839844-8.886719l-10.34375 6.894532 17.75 26.625 10.34375-6.894532c15.496094-10.320312 36.296875-8.273437 49.472656 4.894532 13.730469 13.71875 32.007813 20.800781 50.425782 20.800781 13.679687 0 27.429687-3.914063 39.421875-11.914063l10.34375-6.894531-17.75-26.625zm0 0"/></g></svg>