<svg height="384pt" viewBox="0 0 384 384" width="384pt" xmlns="http://www.w3.org/2000/svg"><path d="m16 16v352h352v-352zm240 240h-128v-128h128zm0 0" fill="#cce4ff"/><g fill="#007aff"><path d="m176 0h-176v384h384v-384zm32 128v-96h144v144h-96v32h96v144h-144v-96h-32v96h-144v-144h96v-32h-96v-144h144v96zm0 0"/><path d="m144 88h-24v-24h-32v24h-24v32h24v24h32v-24h24zm0 0"/><path d="m124.6875 236.6875-20.6875 20.6875-20.6875-20.6875-22.625 22.625 20.6875 20.6875-20.6875 20.6875 22.625 22.625 20.6875-20.6875 20.6875 20.6875 22.625-22.625-20.6875-20.6875 20.6875-20.6875zm0 0"/><path d="m240 88h80v32h-80zm0 0"/><path d="m152 152h80v32h-80zm0 0"/><path d="m152 200h80v32h-80zm0 0"/><path d="m236.679688 300.6875 64.003906-64 22.625 22.625-64 64zm0 0"/></g></svg>