<svg height="384pt" viewBox="0 0 384 384" width="384pt" xmlns="http://www.w3.org/2000/svg"><path d="m368 192c0-44.183594-78.796875-80-176-80s-176 35.816406-176 80 78.796875 80 176 80 176-35.816406 176-80zm0 0" fill="#cce4ff"/><path d="m192 0c-105.871094 0-192 86.136719-192 192s86.128906 192 192 192 192-86.136719 192-192-86.128906-192-192-192zm0 32c65.824219 0 122.449219 39.976562 146.984375 96.902344-34.664063-20.375-86.726563-32.902344-146.984375-32.902344s-112.320312 12.527344-146.984375 32.902344c24.535156-56.925782 81.160156-96.902344 146.984375-96.902344zm0 224c-91.574219 0-160-33.792969-160-64s68.425781-64 160-64 160 33.792969 160 64-68.425781 64-160 64zm0 96c-65.824219 0-122.449219-39.976562-146.984375-96.902344 34.664063 20.375 86.726563 32.902344 146.984375 32.902344s112.320312-12.527344 146.984375-32.902344c-24.535156 56.925782-81.160156 96.902344-146.984375 96.902344zm0 0" fill="#007aff"/></svg>