<svg height="384pt" viewBox="-64 0 384 384" width="384pt" xmlns="http://www.w3.org/2000/svg"><path d="m16 80v224c0 35.359375 50.160156 64 112 64s112-28.640625 112-64v-224c0 35.359375-50.160156 64-112 64s-112-28.640625-112-64zm0 0" fill="#cce4ff"/><path d="m256 304v-224c0-44.855469-56.222656-80-128-80s-128 35.144531-128 80v224c0 44.855469 56.222656 80 128 80s128-35.144531 128-80zm-32-53.320312c-23.28125-16.421876-57.335938-26.679688-96-26.679688s-72.71875 10.257812-96 26.679688v-117.359376c23.28125 16.421876 57.335938 26.679688 96 26.679688s72.71875-10.257812 96-26.679688zm-96-218.679688c56.574219 0 96 25.296875 96 48s-39.425781 48-96 48-96-25.296875-96-48 39.425781-48 96-48zm0 320c-56.574219 0-96-25.296875-96-48s39.425781-48 96-48 96 25.296875 96 48-39.425781 48-96 48zm0 0" fill="#007aff"/></svg>