<svg height="384pt" viewBox="0 0 384 384" width="384pt" xmlns="http://www.w3.org/2000/svg"><path d="m126.886719 16c-7.238281 57.871094-53 103.671875-110.886719 110.894531v65.105469h176v-176zm0 0" fill="#cce4ff"/><path d="m192 368h65.113281c7.238281-57.871094 53-103.671875 110.886719-110.894531v-65.105469h-176zm0 0" fill="#cce4ff"/><g fill="#007aff"><path d="m208 0h-32v176h-176v32h176v176h32v-176h176v-32h-176zm0 0"/><path d="m144 0h-32c0 61.761719-50.238281 112-112 112v32c79.398438 0 144-64.601562 144-144zm0 0"/><path d="m240 384h32c0-61.761719 50.238281-112 112-112v-32c-79.398438 0-144 64.601562-144 144zm0 0"/></g></svg>