<svg height="384pt" viewBox="0 0 384 384" width="384pt" xmlns="http://www.w3.org/2000/svg"><path d="m16 16h352v352h-352zm0 0" fill="#cce4ff"/><g fill="#007aff"><path d="m274.320312 96.976562c-25.128906 3.609376-48.503906 18.542969-64.144531 40.984376l-18.175781 26.054687-18.167969-26.0625c-15.640625-22.441406-39.015625-37.378906-64.144531-40.984375-30.847656-4.402344-62.039062 6.464844-83.457031 29.085938-34.40625 36.359374-34.40625 95.511718 0 131.875 21.417969 22.628906 52.578125 33.503906 83.457031 29.085937 25.121094-3.601563 48.503906-18.535156 64.144531-40.976563l18.167969-26.054687 18.167969 26.0625c15.640625 22.441406 39.015625 37.378906 64.144531 40.984375 4.535156.640625 9.078125.96875 13.589844.96875 26.210937 0 51.601562-10.753906 69.867187-30.054688 34.40625-36.359374 34.40625-95.511718 0-131.875-21.417969-22.644531-52.632812-33.527343-83.449219-29.09375zm-126.746093 130.777344c-10.589844 15.191406-26.054688 25.246094-42.429688 27.597656-20.535156 2.953126-41.382812-4.304687-55.671875-19.398437-22.929687-24.234375-22.929687-63.664063 0-87.890625 12.191406-12.886719 29.121094-20.0625 46.605469-20.0625 3.011719 0 6.042969.214844 9.066406.648438 16.375 2.351562 31.847657 12.40625 42.441407 27.597656l24.910156 35.753906zm186.953125-79.699218c22.929687 24.234374 22.929687 63.664062 0 87.890624-14.289063 15.09375-35.101563 22.328126-55.664063 19.40625-16.375-2.351562-31.847656-12.40625-42.4375-27.597656l-24.921875-35.753906 24.921875-35.753906c10.589844-15.183594 26.054688-25.246094 42.429688-27.597656 20.550781-2.9375 41.382812 4.3125 55.671875 19.40625zm0 0"/><path d="m384 0h-384v64h32v-32h320v32h32zm0 0"/><path d="m0 384h384v-64h-32v32h-320v-32h-32zm0 0"/></g></svg>