<svg height="384pt" viewBox="0 0 384 384" width="384pt" xmlns="http://www.w3.org/2000/svg"><path d="m192 272c93.960938 0 109.097656-170.34375 111.527344-224h-223.085938c2.335938 53.65625 17.199219 224 111.558594 224zm0 0" fill="#cce4ff"/><path d="m208 286.425781c110.105469-19.953125 111.976562-244.410156 112-254.394531l-32-.070312c-.152344 57.808593-15.328125 201.085937-80 221.511718v-253.472656h-32v253.496094c-65.007812-20.335938-79.960938-163.6875-80-221.503906l-32 .007812c0 9.992188 1.414062 234.558594 112 254.441406v33.558594h-176v32h176v32h32v-32h176v-32h-176zm0 0" fill="#007aff"/></svg>