<svg height="397.264pt" viewBox="0 0 397.264 397.264" width="397.264pt" xmlns="http://www.w3.org/2000/svg"><path d="m262.632812 70.632812-240 240 64 64 288-288-64-64zm0 0" fill="#cce4ff"/><path d="m0 310.632812 86.632812 86.632813 310.632813-310.632813-86.632813-86.632812zm187.320312-100.6875 22.625-22.625-20.6875-20.6875 25.375-25.375 41.375 41.375-73.375 73.375-41.375-41.375 25.375-25.375zm-142.054687 100.6875 25.367187-25.375 20.6875 20.6875 22.625-22.625-20.6875-20.6875 25.375-25.375 41.375 41.375-73.375 73.367188zm233.367187-150.625-41.375-41.375 25.375-25.375 20.6875 20.6875 22.625-22.625-20.6875-20.6875 25.375-25.367187 41.367188 41.367187zm0 0" fill="#007aff"/></svg>