<svg height="384pt" viewBox="0 -48 384 384" width="384pt" xmlns="http://www.w3.org/2000/svg"><path d="m336 240c0 17.671875-14.328125 32-32 32s-32-14.328125-32-32 14.328125-32 32-32 32 14.328125 32 32zm0 0" fill="#cce4ff"/><path d="m112 240c0 17.671875-14.328125 32-32 32s-32-14.328125-32-32 14.328125-32 32-32 32 14.328125 32 32zm0 0" fill="#cce4ff"/><g fill="#007aff"><path d="m304 192c-20.855469 0-38.59375 13.382812-45.199219 32h-133.601562c-6.605469-18.617188-24.34375-32-45.199219-32s-38.59375 13.382812-45.199219 32h-34.800781v32h34.800781c6.605469 18.617188 24.34375 32 45.199219 32s38.59375-13.382812 45.199219-32h133.601562c6.605469 18.617188 24.34375 32 45.199219 32s38.59375-13.382812 45.199219-32h34.800781v-32h-34.800781c-6.605469-18.617188-24.34375-32-45.199219-32zm-224 64c-8.824219 0-16-7.175781-16-16s7.175781-16 16-16 16 7.175781 16 16-7.175781 16-16 16zm224 0c-8.824219 0-16-7.175781-16-16s7.175781-16 16-16 16 7.175781 16 16-7.175781 16-16 16zm0 0"/><path d="m304 0h-48v160h48c26.472656 0 48-21.527344 48-48 0-12.304688-4.6875-23.496094-12.320312-32 7.632812-8.503906 12.320312-19.695312 12.320312-32 0-26.472656-21.527344-48-48-48zm-16 32h16c8.824219 0 16 7.175781 16 16s-7.175781 16-16 16h-16zm16 96h-16v-32h16c8.824219 0 16 7.175781 16 16s-7.175781 16-16 16zm0 0"/><path d="m128 160v-112c0-26.472656-21.527344-48-48-48s-48 21.527344-48 48v112h32v-48h32v48zm-64-80v-32c0-8.824219 7.175781-16 16-16s16 7.175781 16 16v32zm0 0"/></g></svg>